<svg xmlns="http://www.w3.org/2000/svg" viewBox="0 0 200 200" fill="none">

<!-- в•җв•җв•җ RAYONS DU HAUT (arc-en-ciel gaucheвҶ’droite) в•җв•җв•җ -->
  <g stroke-linecap="round" stroke-width="6.5">
    <line x1="64"  y1="75"  x2="49"  y2="52"  stroke="#3BC9A8"/>
    <line x1="77"  y1="65"  x2="68"  y2="43"  stroke="#68C956"/>
    <line x1="89"  y1="59"  x2="83"  y2="38"  stroke="#A8D440"/>
    <line x1="100" y1="57"  x2="100" y2="35"  stroke="#F5C840"/>
    <line x1="111" y1="59"  x2="117" y2="38"  stroke="#F5A040"/>
    <line x1="123" y1="65"  x2="132" y2="43"  stroke="#F07050"/>
    <line x1="136" y1="75"  x2="151" y2="52"  stroke="#E83838"/>
  </g>

  <!-- в•җв•җв•җ HГүMISPHГҲRE GAUCHE (teal) в•җв•җв•җ
       Descend de center-top, tourne Г  gauche, bumps en bas -->
  <path
    d="M100 64
       C 89 55, 70 52, 61 58
       C 49 65, 43 78, 43 93
       C 43 107, 50 119, 61 127
       C 65 130, 69 132, 72 133
       C 69 137, 65 143, 63 148
       C 61 153, 63 159, 69 160
       C 75 161, 81 155, 82 150
       C 85 157, 90 162, 96 160
       C 100 159, 101 154, 100 149"
    stroke="#3BC9A8" stroke-width="8" stroke-linecap="round" stroke-linejoin="round"/>

  <!-- в•җв•җв•җ HГүMISPHГҲRE DROIT (orange-rouge) в•җв•җв•җ -->
  <path
    d="M100 64
       C 111 55, 130 52, 139 58
       C 151 65, 157 78, 157 93
       C 157 107, 150 119, 139 127
       C 135 130, 131 132, 128 133
       C 131 137, 135 143, 137 148
       C 139 153, 137 159, 131 160
       C 125 161, 119 155, 118 150
       C 115 157, 110 162, 104 160
       C 100 159, 99 154, 100 149"
    stroke="#E83838" stroke-width="8" stroke-linecap="round" stroke-linejoin="round"/>

  <!-- Ligne de sГ©paration centrale -->
  <line x1="100" y1="64" x2="100" y2="149"
    stroke="#C4D8D2" stroke-width="2.5" stroke-dasharray="5 4"/>

  <!-- в•җв•җв•җ YEUX (arcs joyeux vers le haut) в•җв•җв•җ -->
  <path d="M75 107 Q84 100 92 107"
    stroke="#1B2B45" stroke-width="6" stroke-linecap="round" fill="none"/>
  <path d="M108 107 Q117 100 125 107"
    stroke="#1B2B45" stroke-width="6" stroke-linecap="round" fill="none"/>

  <!-- в•җв•җв•җ SOURIRE в•җв•җв•җ -->
  <path d="M75 120 Q100 141 125 120"
    stroke="#1B2B45" stroke-width="6" stroke-linecap="round" fill="none"/>

</svg>
